# xmcd CD database file
#
# Track frame offsets:
#	150
#	29402
#	56177
#	79165
#	114905
#	158295
#
# Disc length: 2334 seconds
#
# Revision: 0
# Processed by: cddbd v1.5.1PL0 Copyright (c) Steve Scherf et al.
# Submitted via: CDex 1.51
#
DISCID=3e091c06
DTITLE=Kenny Drew Trio - Ruby My Dear
DYEAR=1977
DGENRE=Jazz
TTITLE0=Bassment (Kenny Drew)
TTITLE1=Ruby My Dear (Thelonious Monk)
TTITLE2=Gentle Rain (Luiz Bonfa)
TTITLE3=Ending (Kenny Drew)
TTITLE4=Sunspot (Ausin Wells)
TTITLE5=No Splinn' (Kenny Drew)
EXTD=YEAR: 1977
EXTT0=
EXTT1=
EXTT2=
EXTT3=
EXTT4=
EXTT5=
PLAYORDER=
